<?xml version="1.0" encoding="utf-8"?>
<!-- Generator: Adobe Illustrator 22.0.0, SVG Export Plug-In . SVG Version: 6.00 Build 0)  -->
<svg version="1.1" id="圖層_1" xmlns="http://www.w3.org/2000/svg" xmlns:xlink="http://www.w3.org/1999/xlink" x="0px" y="0px"
	 viewBox="0 0 48 48" style="enable-background:new 0 0 48 48;" xml:space="preserve">
<style type="text/css">
	.st0{fill:#EDB033;}
</style>
<path class="st0" d="M28.4,26.6h8.5v-2.5h-8.5V26.6z M28.4,32.3h8.5v-2.5h-8.5V32.3z M29.2,14H41c0.8,0,1.5,0.3,2.1,0.9
	c0.6,0.6,0.9,1.3,0.9,2.1v24c0,0.8-0.3,1.5-0.9,2.1C42.5,43.7,41.8,44,41,44H7c-0.8,0-1.5-0.3-2.1-0.9C4.3,42.5,4,41.8,4,41V17
	c0-0.8,0.3-1.5,0.9-2.1C5.5,14.3,6.2,14,7,14h11.9V7c0-0.8,0.3-1.5,0.9-2.1S21.1,4,21.9,4h4.4c0.8,0,1.5,0.3,2.1,0.9
	s0.9,1.3,0.9,2.1V14z M21.9,17h4.4V7h-4.4V17z M24,29.4L24,29.4L24,29.4L24,29.4L24,29.4L24,29.4L24,29.4L24,29.4L24,29.4L24,29.4
	L24,29.4L24,29.4L24,29.4z M17.7,29.8c0.8,0,1.4-0.3,1.9-0.8s0.8-1.2,0.8-1.9c0-0.8-0.3-1.4-0.8-1.9s-1.2-0.8-1.9-0.8
	c-0.7,0-1.4,0.3-1.9,0.8S15,26.3,15,27.1c0,0.7,0.3,1.4,0.8,1.9S17,29.8,17.7,29.8z M11.6,35.7h11.9V35c0-0.6-0.1-1.1-0.4-1.6
	c-0.3-0.5-0.7-0.8-1.1-0.9c-1.1-0.4-1.9-0.6-2.5-0.7c-0.6-0.1-1.2-0.2-1.8-0.2c-0.6,0-1.3,0.1-2,0.2c-0.7,0.1-1.5,0.4-2.4,0.7
	c-0.5,0.2-0.9,0.5-1.2,0.9c-0.3,0.5-0.4,1-0.4,1.6V35.7z M18.9,17H7l0,0l0,0v24l0,0l0,0h34l0,0l0,0V17l0,0l0,0H29.2
	c0,0.9-0.3,1.7-0.9,2.2C27.7,19.7,26.9,20,26,20H22c-0.9,0-1.7-0.3-2.3-0.8C19.2,18.7,18.9,17.9,18.9,17z"/>
</svg>
