<?xml version="1.0" encoding="utf-8"?>
<!-- Generator: Adobe Illustrator 22.0.0, SVG Export Plug-In . SVG Version: 6.00 Build 0)  -->
<svg version="1.1" id="圖層_1" xmlns="http://www.w3.org/2000/svg" xmlns:xlink="http://www.w3.org/1999/xlink" x="0px" y="0px"
	 viewBox="0 0 48 48" style="enable-background:new 0 0 48 48;" xml:space="preserve">
<style type="text/css">
	.st0{fill:#EDB033;}
</style>
<path class="st0" d="M7,42c-0.8,0-1.5-0.3-2.1-0.9C4.3,40.5,4,39.8,4,39V14.4c0-0.8,0.3-1.5,0.9-2.1s1.3-0.9,2.1-0.9h9.5V7
	c0-0.8,0.3-1.5,0.9-2.1C18,4.3,18.7,4,19.5,4h9c0.8,0,1.5,0.3,2.1,0.9c0.6,0.6,0.9,1.3,0.9,2.1v4.4H41c0.8,0,1.5,0.3,2.1,0.9
	c0.6,0.6,0.9,1.3,0.9,2.1V39c0,0.8-0.3,1.5-0.9,2.1C42.5,41.7,41.8,42,41,42H7z M19.5,11.4h9V7l0,0l0,0h-9l0,0l0,0V11.4z M7,39h34
	l0,0l0,0V14.4c0,0,0,0,0,0c0,0,0,0,0,0H7c0,0,0,0,0,0c0,0,0,0,0,0V39L7,39L7,39z M7,39L7,39L7,39V14.4c0,0,0,0,0,0c0,0,0,0,0,0
	c0,0,0,0,0,0c0,0,0,0,0,0V39L7,39L7,39z"/>
</svg>
